<?xml version="1.0" encoding="UTF-8"?>
<!-- Generator: Adobe Illustrator 22.1.0, SVG Export Plug-In . SVG Version: 6.00 Build 0)  -->
<svg version="1.1" id="Ebene_1" xmlns="http://www.w3.org/2000/svg" xmlns:xlink="http://www.w3.org/1999/xlink" x="0px" y="0px" viewBox="0 0 289.7 162.7" style="enable-background:new 0 0 289.7 162.7;" xml:space="preserve">
<style type="text/css">
	.st0{clip-path:url(#SVGID_2_);fill:#004F9F;}
	.st1{fill:#004F9F;}
</style>
<g>
	<defs>
		<rect id="SVGID_1_" y="-7.4" width="295.9" height="170.1"/>
	</defs>
	<clipPath id="SVGID_2_">
		<use xlink:href="#SVGID_1_" style="overflow:visible;"/>
	</clipPath>
	<path class="st0" d="M286.3,4.5C284.9,4.4,144.1-7.4,1.5,39.9L0,40.4l2.3,6.9l1.5-0.5c55.7-18.5,117.4-30.1,183.6-34.5   c48.9-3.3,85.1-1.4,95-0.8V161h7.3V4.8L286.3,4.5z"/>
</g>
<path d="M26.9,78c-0.7,0.3-1.9,0.6-3,0.6c-3.3,0-5.3-2.1-5.3-5.5c0-3.7,2.2-5.6,5.3-5.6c1.3,0,2.3,0.3,3,0.6l0.6-2.2  c-0.6-0.3-1.9-0.7-3.7-0.7c-4.7,0-8.1,3-8.1,8.1c0,4.6,2.9,7.7,7.8,7.7c1.8,0,3.3-0.3,3.9-0.7L26.9,78z"/>
<path d="M35.7,74.2l1.2-3.8c0.3-0.9,0.5-2,0.7-2.8h0c0.2,0.9,0.5,1.9,0.8,2.8l1.2,3.8H35.7z M40,76.3l1.4,4.3h3l-5-15.2h-3.6  L31,80.6h2.9l1.3-4.3H40z"/>
<path d="M51.6,67.5c0.3-0.1,0.8-0.1,1.7-0.1c1.8,0,3,0.8,3,2.4c0,1.5-1.2,2.5-3.1,2.5h-1.7V67.5z M48.8,80.6h2.8v-6.3H53  c1.6,0,2.3,0.7,2.7,2.7c0.4,1.9,0.8,3.1,1,3.6h2.9c-0.3-0.6-0.7-2.4-1.2-4.3c-0.4-1.5-1-2.5-2.1-2.9v-0.1c1.4-0.5,2.8-1.9,2.8-3.8  c0-1.3-0.5-2.4-1.3-3.1c-1-0.9-2.5-1.2-4.7-1.2c-1.6,0-3.2,0.1-4.2,0.3V80.6z"/>
<polygon points="63.9,80.6 73,80.6 73,78.3 66.7,78.3 66.7,65.4 63.9,65.4 "/>
<path d="M90.1,80.6l5.3-15.2h-3l-2.2,7c-0.6,1.9-1.2,3.7-1.6,5.5h0c-0.4-1.9-0.9-3.6-1.5-5.6l-2.1-6.9h-3L87,80.6H90.1z"/>
<path d="M105.6,67.4c2.8,0,4.2,2.7,4.2,5.6c0,3.2-1.5,5.7-4.2,5.7c-2.7,0-4.2-2.5-4.2-5.6C101.4,70,102.8,67.4,105.6,67.4z   M105.7,65.2c-4.3,0-7.2,3.3-7.2,8c0,4.5,2.7,7.8,7,7.8c4.2,0,7.3-2.9,7.3-8C112.7,68.5,110.1,65.2,105.7,65.2z"/>
<path d="M120,80.6v-5.5c0-2.5,0-4.5-0.1-6.5l0.1,0c0.7,1.7,1.8,3.6,2.7,5.3l4,6.7h2.9V65.4h-2.6v5.3c0,2.3,0.1,4.3,0.2,6.3h0  c-0.7-1.7-1.6-3.4-2.6-5.1l-3.9-6.5h-3.2v15.2H120z"/>
<path d="M148.3,67.4c2.8,0,4.2,2.7,4.2,5.6c0,3.2-1.5,5.7-4.2,5.7c-2.7,0-4.2-2.5-4.2-5.6C144,70,145.5,67.4,148.3,67.4z   M148.3,65.2c-4.3,0-7.2,3.3-7.2,8c0,4.5,2.7,7.8,7,7.8c4.2,0,7.3-2.9,7.3-8C155.4,68.5,152.8,65.2,148.3,65.2z"/>
<path d="M159.4,79.9c0.8,0.5,2.5,1,4.1,1c3.9,0,5.8-2.1,5.8-4.6c0-2.2-1.3-3.5-3.9-4.5c-2-0.8-2.9-1.3-2.9-2.5  c0-0.9,0.8-1.8,2.5-1.8c1.4,0,2.5,0.4,3,0.7l0.7-2.2c-0.8-0.4-2-0.8-3.7-0.8c-3.3,0-5.4,1.9-5.4,4.4c0,2.2,1.6,3.5,4.1,4.4  c1.9,0.7,2.7,1.4,2.7,2.5c0,1.2-1,2.1-2.8,2.1c-1.4,0-2.8-0.5-3.7-1L159.4,79.9z"/>
<path d="M173.4,79.9c0.8,0.5,2.5,1,4.1,1c3.9,0,5.8-2.1,5.8-4.6c0-2.2-1.3-3.5-3.9-4.5c-2-0.8-2.9-1.3-2.9-2.5  c0-0.9,0.8-1.8,2.5-1.8c1.4,0,2.5,0.4,3,0.7l0.7-2.2c-0.8-0.4-2-0.8-3.7-0.8c-3.3,0-5.4,1.9-5.4,4.4c0,2.2,1.6,3.5,4.1,4.4  c1.9,0.7,2.7,1.4,2.7,2.5c0,1.2-1,2.1-2.8,2.1c-1.4,0-2.8-0.5-3.7-1L173.4,79.9z"/>
<rect x="188.1" y="65.4" width="2.8" height="15.2"/>
<polygon points="204.8,71.6 199.1,71.6 199.1,67.7 205.2,67.7 205.2,65.4 196.3,65.4 196.3,80.6 205.5,80.6 205.5,78.4 199.1,78.4   199.1,73.9 204.8,73.9 "/>
<polygon points="213.4,80.6 216.1,80.6 216.1,67.7 220.5,67.7 220.5,65.4 209,65.4 209,67.7 213.4,67.7 "/>
<polygon points="223.6,80.6 235.1,80.6 235.1,78.3 227.3,78.3 227.3,78.3 235,67 235,65.4 224.3,65.4 224.3,67.7 231.4,67.7   231.4,67.8 223.6,79.1 "/>
<path d="M239.7,80.6h2.8v-5.4l1.4-1.6l4.3,7h3.3l-5.6-8.8l5.2-6.5h-3.4l-4,5.4c-0.4,0.5-0.7,1.1-1.1,1.7h-0.1v-7h-2.8V80.6z"/>
<path d="M261.1,80.6v-6.4l5.1-8.8H263l-1.8,3.9c-0.5,1.1-1,2.1-1.3,3h0c-0.4-1-0.8-1.9-1.3-3l-1.8-3.9h-3.2l4.8,8.9v6.4H261.1z"/>
<path class="st1" d="M24.5,135.6c2.8,0,4.4,2.8,4.4,6.1c0,3.5-1.6,6.2-4.4,6.2c-2.8,0-4.4-2.5-4.4-6.1  C20.1,138.3,21.7,135.6,24.5,135.6z M24.6,132.3c-5.4,0-8.9,4.1-8.9,9.6c0,5.2,3.2,9.3,8.6,9.3c5.3,0,9-3.6,9-9.6  C33.3,136.5,30.2,132.3,24.6,132.3z"/>
<polygon class="st1" points="47.9,150.9 59.3,150.9 59.3,147.4 52,147.4 52,132.6 47.9,132.6 "/>
<path class="st1" d="M77.8,135.8c0.4-0.1,0.9-0.2,1.9-0.2c3.5,0,5.8,2,5.7,5.8c0,4.4-2.4,6.4-6.2,6.4c-0.5,0-1.1,0-1.4-0.1V135.8z   M73.6,150.8c1,0.1,2.5,0.3,4.7,0.3c3.6,0,6.5-0.8,8.4-2.4c1.8-1.5,3-3.9,3-7.4c0-3.2-1.2-5.5-3.1-6.9c-1.8-1.3-4-1.9-7.5-1.9  c-2.1,0-4.1,0.1-5.6,0.4V150.8z"/>
<polygon class="st1" points="115.2,139.8 108.5,139.8 108.5,136 115.6,136 115.6,132.6 104.4,132.6 104.4,150.9 116,150.9   116,147.5 108.5,147.5 108.5,143.2 115.2,143.2 "/>
<path class="st1" d="M134.5,150.9v-5.5c0-3-0.1-5.5-0.2-8l0.1,0c0.9,2.1,2.1,4.5,3.2,6.4l3.9,7h4.3v-18.2H142v5.3  c0,2.7,0.1,5.2,0.4,7.6h-0.1c-0.8-2.1-1.9-4.3-3-6.2l-3.8-6.7h-4.8v18.2H134.5z"/>
<path class="st1" d="M165.4,142.8h1.4c2.1,0,3.7,0.7,3.7,2.6c0,1.9-1.7,2.6-3.5,2.6c-0.7,0-1.2,0-1.6-0.1V142.8z M165.4,135.6  c0.4-0.1,0.9-0.1,1.8-0.1c1.9,0,2.9,0.7,2.9,2.1c0,1.4-1.2,2.2-3.3,2.2h-1.4V135.6z M161.3,150.8c0.9,0.1,2.4,0.3,4.5,0.3  c3.6,0,5.8-0.6,7.2-1.7c1.1-0.9,1.9-2.2,1.9-3.9c0-2.4-1.5-3.9-3.6-4.5V141c2.1-0.8,3-2.3,3-3.9c0-1.7-0.9-2.9-2.2-3.6  c-1.3-0.8-2.9-1-5.4-1c-2.1,0-4.2,0.2-5.3,0.4V150.8z"/>
<path class="st1" d="M189.5,132.6v10.2c0,5.8,2.7,8.4,7.3,8.4c4.8,0,7.6-2.7,7.6-8.3v-10.2h-4.1v10.5c0,3.2-1.2,4.7-3.4,4.7  c-2.1,0-3.3-1.6-3.3-4.7v-10.5H189.5z"/>
<path class="st1" d="M224,135.7c0.3-0.1,0.9-0.1,1.9-0.1c1.9,0,3,0.9,3,2.5c0,1.6-1.2,2.6-3.3,2.6H224V135.7z M219.9,150.9h4.1v-7.2  h1.2c1.7,0,2.5,0.6,2.9,2.9c0.5,2.2,1,3.7,1.3,4.2h4.2c-0.4-0.7-0.9-3.1-1.5-5.1c-0.5-1.7-1.2-2.9-2.4-3.4v-0.1  c1.6-0.6,3.2-2.2,3.2-4.5c0-1.7-0.6-2.9-1.7-3.8c-1.3-1-3.2-1.4-5.9-1.4c-2.2,0-4.2,0.2-5.5,0.4V150.9z"/>
<path class="st1" d="M263,140.4h-6.8v3.2h2.8v3.8c-0.3,0.2-1.1,0.3-2,0.3c-3.4,0-5.7-2.2-5.7-6c0-3.9,2.6-5.9,6-5.9  c2,0,3.2,0.4,4.2,0.8l0.9-3.3c-0.9-0.4-2.7-0.9-5.1-0.9c-6,0-10.4,3.5-10.4,9.5c0,2.7,0.9,5.1,2.6,6.6c1.7,1.6,4.1,2.5,7.4,2.5  c2.4,0,4.8-0.6,6.1-1V140.4z"/>
<path class="st1" d="M16.8,97.9v11.3c0,6.5,3,9.3,8.1,9.3c5.3,0,8.4-3,8.4-9.2V97.9h-4.6v11.6c0,3.6-1.3,5.3-3.7,5.3  c-2.3,0-3.7-1.8-3.7-5.3V97.9H16.8z"/>
<path class="st1" d="M49.3,118.1V112c0-3.3-0.1-6.2-0.2-8.8l0.1,0c1,2.4,2.3,5,3.5,7.1l4.3,7.8h4.8V97.9h-4.2v5.9  c0,3,0.1,5.8,0.4,8.4h-0.1c-0.9-2.3-2.1-4.8-3.3-6.9l-4.2-7.4h-5.3v20.2H49.3z"/>
<rect x="73.6" y="97.9" class="st1" width="4.6" height="20.2"/>
<path class="st1" d="M100.1,118.1l6.8-20.2H102l-2.6,8.6c-0.7,2.3-1.3,4.7-1.8,7.1h-0.1c-0.5-2.5-1.1-4.8-1.8-7.2l-2.5-8.6h-5  l6.5,20.2H100.1z"/>
<polygon class="st1" points="128.9,105.8 121.5,105.8 121.5,101.6 129.4,101.6 129.4,97.9 116.9,97.9 116.9,118.1 129.8,118.1   129.8,114.3 121.5,114.3 121.5,109.5 128.9,109.5 "/>
<path class="st1" d="M145.2,101.3c0.3-0.1,1-0.2,2.1-0.2c2.1,0,3.4,1,3.4,2.8c0,1.8-1.4,2.9-3.6,2.9h-1.8V101.3z M140.7,118.1h4.5  v-8h1.4c1.9,0,2.7,0.7,3.3,3.2c0.6,2.5,1.1,4.1,1.4,4.7h4.7c-0.4-0.8-1-3.4-1.7-5.7c-0.5-1.9-1.3-3.2-2.7-3.8v-0.1  c1.7-0.6,3.6-2.4,3.6-5c0-1.9-0.7-3.3-1.9-4.2c-1.4-1.1-3.5-1.6-6.5-1.6c-2.4,0-4.6,0.2-6.1,0.4V118.1z"/>
<path class="st1" d="M165.5,117.2c1.1,0.6,3.4,1.2,5.7,1.2c5.6,0,8.2-2.9,8.2-6.3c0-2.9-1.7-4.7-5.3-6c-2.6-1-3.8-1.6-3.8-2.9  c0-1.1,1-2,2.9-2c2,0,3.4,0.6,4.2,1l1-3.7c-1.2-0.5-2.9-1-5.2-1c-4.8,0-7.7,2.6-7.7,6.1c0,2.9,2.2,4.8,5.6,6  c2.4,0.9,3.4,1.6,3.4,2.9c0,1.3-1.1,2.2-3.2,2.2c-2,0-3.8-0.6-5.1-1.3L165.5,117.2z"/>
<rect x="190.3" y="97.9" class="st1" width="4.6" height="20.2"/>
<polygon class="st1" points="210.6,118.1 215.2,118.1 215.2,101.7 220.7,101.7 220.7,97.9 205.2,97.9 205.2,101.7 210.6,101.7 "/>
<path class="st1" d="M239.9,96.7c1.2,0,2-1,2-2.1c0-1.2-0.8-2-2-2c-1.2,0-2,0.9-2,2C237.8,95.8,238.7,96.7,239.9,96.7z M233.7,96.7  c1.1,0,2-1,2-2.1c0-1.2-0.9-2-2-2c-1.2,0-2.1,0.9-2.1,2C231.6,95.8,232.5,96.7,233.7,96.7z M234.2,109.5l1.2-4.3  c0.3-1.2,0.6-2.7,0.9-3.9h0.1c0.3,1.2,0.7,2.7,1,3.9l1.3,4.3H234.2z M239.3,112.9l1.6,5.2h4.9l-6.3-20.2h-6l-6.2,20.2h4.7l1.4-5.2  H239.3z"/>
<polygon class="st1" points="257.7,118.1 262.3,118.1 262.3,101.7 267.8,101.7 267.8,97.9 252.3,97.9 252.3,101.7 257.7,101.7 "/>
</svg>